<svg xmlns="http://www.w3.org/2000/svg" width="39.513" height="39.513" viewBox="0 0 39.513 39.513">
  <path id="Icon_simple-spotify" data-name="Icon simple-spotify" d="M19.757,0A19.757,19.757,0,1,0,39.513,19.757,19.815,19.815,0,0,0,19.757,0Zm9.09,28.548a1.177,1.177,0,0,1-1.681.4c-4.643-2.865-10.471-3.459-17.387-1.879A1.221,1.221,0,1,1,9.187,24.7c7.508-1.681,14.027-.988,19.164,2.173a1.186,1.186,0,0,1,.5,1.679Zm2.371-5.433a1.492,1.492,0,0,1-2.078.494A25.6,25.6,0,0,0,9.483,21.337a1.5,1.5,0,0,1-.889-2.866A28.913,28.913,0,0,1,30.82,21.14a1.4,1.4,0,0,1,.4,1.976Zm.2-5.532C25.091,13.83,14.521,13.435,8.5,15.313a1.814,1.814,0,0,1-1.087-3.461c7.014-2.074,18.571-1.679,25.883,2.669a1.91,1.91,0,0,1,.69,2.568,2.068,2.068,0,0,1-2.567.494Z" fill="#fff"/>
</svg>
