          <svg
            xmlns="http://www.w3.org/2000/svg"
            width="390.931"
            height="146.698"
            viewBox="0 0 390.931 146.698"
          >
            <g
              id="Group_42"
              data-name="Group 42"
              transform="translate(-82.651 -170.027)"
            >
              <g
                id="Group_39"
                data-name="Group 39"
                transform="translate(155.059 292.879)"
              >
                <rect
                  id="Rectangle_141"
                  data-name="Rectangle 141"
                  width="1.5"
                  height="13.465"
                  transform="translate(25.491 0.135)"
                  fill="#fff"
                />
                <path
                  id="Path_36"
                  data-name="Path 36"
                  d="M306.858,391.245l2.885,5.848h1.539l-3.52-7.329,3.4-6.136h-1.52l-3.578,6.5v-6.5h-1.5v13.465h1.5v-4.521Z"
                  transform="translate(-249.202 -383.493)"
                  fill="#fff"
                />
                <path
                  id="Path_37"
                  data-name="Path 37"
                  d="M346.848,393.82V386.7c0-1.212.52-1.943,1.6-1.943,1.1,0,1.6.731,1.6,1.943v7.117c0,1.231-.5,1.943-1.6,1.943-1.077,0-1.6-.712-1.6-1.943m-1.481-7.04v6.963c0,2.039,1.02,3.385,3.078,3.385,2.077,0,3.1-1.346,3.1-3.385V386.78c0-2.058-1.02-3.386-3.1-3.386C346.387,383.394,345.367,384.721,345.367,386.78Z"
                  transform="translate(-266.509 -383.394)"
                  fill="#fff"
                />
                <path
                  id="Path_38"
                  data-name="Path 38"
                  d="M389.138,397.093h5.348v-1.366h-3.847v-12.1h-1.5Z"
                  transform="translate(-285.078 -383.493)"
                  fill="#fff"
                />
                <path
                  id="Path_39"
                  data-name="Path 39"
                  d="M430.4,393.092l1.482-7.771,1.52,7.771Zm-.192,1.289h3.4l.52,2.712h1.5l-2.577-13.465h-2.174L428.3,397.093h1.385Z"
                  transform="translate(-301.691 -383.493)"
                  fill="#fff"
                />
                <path
                  id="Path_40"
                  data-name="Path 40"
                  d="M209.755,397.093V386.205l3.443,10.887h1.558V383.628h-1.327v9.733l-3.116-9.733h-1.9v13.465Z"
                  transform="translate(-208.408 -383.493)"
                  fill="#fff"
                />
                <path
                  id="Path_41"
                  data-name="Path 41"
                  d="M503.736,397.093v-1.366h-4.6l4.636-10.753v-1.347H497.83v1.366h4.4l-4.616,10.753v1.347Z"
                  transform="translate(-331.098 -383.493)"
                  fill="#fff"
                />
                <path
                  id="Path_42"
                  data-name="Path 42"
                  d="M542.651,393.092l1.481-7.771,1.52,7.771Zm-.192,1.289h3.405l.519,2.712h1.5l-2.577-13.465h-2.174l-2.577,13.465h1.385Z"
                  transform="translate(-349.312 -383.493)"
                  fill="#fff"
                />
                <path
                  id="Path_43"
                  data-name="Path 43"
                  d="M588.715,383.394c-2.058,0-3.02,1.347-3.02,3.386v6.963c0,2.039.962,3.385,3.02,3.385,2.077,0,3.04-1.346,3.04-3.385v-1.674h-1.423v1.75c0,1.212-.481,1.943-1.578,1.943-1.077,0-1.578-.731-1.578-1.943V386.7c0-1.212.5-1.943,1.578-1.943,1.1,0,1.578.731,1.578,1.943v1.289h1.423V386.78c0-2.039-.962-3.386-3.04-3.386"
                  transform="translate(-368.462 -383.394)"
                  fill="#fff"
                />
                <path
                  id="Path_44"
                  data-name="Path 44"
                  d="M633.955,389.591h-3.289v-4.6h4.039v-1.366h-5.54v13.465h5.54v-1.366h-4.039v-4.79h3.289Z"
                  transform="translate(-386.903 -383.493)"
                  fill="#fff"
                />
                <path
                  id="Path_45"
                  data-name="Path 45"
                  d="M674.439,383.394c-2.02,0-2.981,1.289-2.981,3.367,0,3.789,4.5,4.078,4.5,7.079,0,1.211-.5,1.924-1.577,1.924s-1.577-.712-1.577-1.924v-.846h-1.4v.769c0,2.039.962,3.366,3.02,3.366s3.039-1.327,3.039-3.366c0-3.789-4.52-4.078-4.52-7.1,0-1.192.461-1.9,1.539-1.9s1.539.712,1.539,1.924v.442h1.423v-.365c0-2.039-.962-3.367-3-3.367"
                  transform="translate(-404.82 -383.394)"
                  fill="#fff"
                />
                <path
                  id="Path_46"
                  data-name="Path 46"
                  d="M717.059,391.245l2.885,5.848h1.539l-3.52-7.329,3.4-6.136h-1.52l-3.578,6.5v-6.5h-1.5v13.465h1.5v-4.521Z"
                  transform="translate(-423.219 -383.493)"
                  fill="#fff"
                />
                <rect
                  id="Rectangle_142"
                  data-name="Rectangle 142"
                  width="1.5"
                  height="13.465"
                  transform="translate(317.023 0.135)"
                  fill="#fff"
                />
              </g>
            </g>
          </svg>