<svg xmlns="http://www.w3.org/2000/svg" width="80.307" height="107.077" viewBox="0 0 80.307 107.077">
  <g id="Ellipse_5" data-name="Ellipse 5" transform="translate(15.56 12.592)" fill="#fff" stroke="#707070" stroke-width="1">
    <ellipse cx="25" cy="25.5" rx="25" ry="25.5" stroke="none"/>
    <ellipse cx="25" cy="25.5" rx="24.5" ry="25" fill="none"/>
  </g>
  <path id="Icon_awesome-award" data-name="Icon awesome-award" d="M20.311,75.838c-1.817-1.817-.87-1.3-5.253-2.478a15.089,15.089,0,0,1-5.318-2.786L.251,93.838a3.347,3.347,0,0,0,3.227,4.607l11.019-.42,7.579,8.005a3.345,3.345,0,0,0,5.527-1.037L38.488,78.3a15.008,15.008,0,0,1-18.178-2.466Zm59.744,18L70.567,70.574a15.054,15.054,0,0,1-5.318,2.786c-4.406,1.179-3.44.665-5.253,2.478A15.011,15.011,0,0,1,41.816,78.3L52.7,104.993a3.346,3.346,0,0,0,5.527,1.037l7.581-8.005,11.019.42a3.347,3.347,0,0,0,3.227-4.607ZM55,71.105c3.2-3.252,3.561-2.972,8.112-4.212a8.5,8.5,0,0,0,5.954-6.061c1.564-5.939,1.159-5.222,5.427-9.568a8.675,8.675,0,0,0,2.179-8.277c-1.562-5.935-1.564-5.107,0-11.048a8.675,8.675,0,0,0-2.179-8.277c-4.268-4.346-3.863-3.63-5.427-9.568a8.5,8.5,0,0,0-5.954-6.061c-5.831-1.591-5.128-1.175-9.4-5.523A8.321,8.321,0,0,0,45.58.292c-5.828,1.589-5.015,1.591-10.854,0a8.316,8.316,0,0,0-8.133,2.219c-4.268,4.346-3.566,3.932-9.4,5.523a8.5,8.5,0,0,0-5.954,6.061c-1.562,5.937-1.159,5.222-5.427,9.568a8.67,8.67,0,0,0-2.179,8.277c1.562,5.931,1.564,5.1,0,11.046a8.681,8.681,0,0,0,2.179,8.279c4.268,4.346,3.863,3.628,5.427,9.568a8.5,8.5,0,0,0,5.954,6.061c4.68,1.276,5.03,1.075,8.11,4.212a8.311,8.311,0,0,0,10.4,1.217,8.3,8.3,0,0,1,8.894,0A8.309,8.309,0,0,0,55,71.105ZM20.424,36.8A19.732,19.732,0,1,1,40.153,56.88,19.908,19.908,0,0,1,20.424,36.8Z" transform="translate(0 0.001)" fill="#987e57"/>
</svg>
