<svg xmlns="http://www.w3.org/2000/svg" width="96" height="123" viewBox="0 0 96 123">
  <g id="Group_70" data-name="Group 70" transform="translate(-10655 10094.42)">
    <path id="Rectangle_228" data-name="Rectangle 228" d="M9,0H87a9,9,0,0,1,9,9V96a0,0,0,0,1,0,0H0a0,0,0,0,1,0,0V9A9,9,0,0,1,9,0Z" transform="translate(10655 -10094.42)" fill="#ed2a58"/>
    <path id="Rectangle_229" data-name="Rectangle 229" d="M0,0H96a0,0,0,0,1,0,0V18a9,9,0,0,1-9,9H9a9,9,0,0,1-9-9V0A0,0,0,0,1,0,0Z" transform="translate(10655 -9998.42)" fill="#fff"/>
    <path id="Union_4" data-name="Union 4" d="M29.736,62.252a33.879,33.879,0,0,0-1.768-25.51,54.818,54.818,0,0,0,15.447-12.45h.1a18.98,18.98,0,0,1,0,37.961Zm-18.634,0A54.223,54.223,0,0,0,22.053,46.135a33.586,33.586,0,0,1,5.113,16.116Zm-10.1,0a1,1,0,0,1-1-1V30.979a33.58,33.58,0,0,1,15.305,7.381,54.312,54.312,0,0,1-7.181,23.89ZM16.189,29.585A33.511,33.511,0,0,1,0,24.575V19.014a18.985,18.985,0,1,1,37.492,4.225,33.529,33.529,0,0,1-19.68,6.385Q17,29.624,16.189,29.585Zm-2.21-8.033a4.913,4.913,0,1,0,4.913-4.918A4.915,4.915,0,0,0,13.979,21.552Z" transform="translate(10670.76 -10075.937)" fill="#fff"/>
    <text id="Ambasador" transform="translate(10674 -9981.42)" fill="#422d5a" font-size="10" font-family="Helvetica" letter-spacing="-0.018em"><tspan x="0" y="0">Ambasador</tspan></text>
    <text id="PWB" transform="translate(10716 -10064.42)" fill="#fff" font-size="15" font-family="Helvetica" letter-spacing="-0.018em"><tspan x="0" y="0">PWB</tspan></text>
  </g>
</svg>
