          <svg
            xmlns="http://www.w3.org/2000/svg"
            width="390.931"
            height="146.698"
            viewBox="0 0 390.931 146.698"
          >
            <g
              id="Group_42"
              data-name="Group 42"
              transform="translate(-82.651 -170.027)"
            >
              <g
                id="Group_41"
                data-name="Group 41"
                transform="translate(82.651 170.027)"
              >
                <g id="Group_40" data-name="Group 40">
                  <path
                    id="Path_47"
                    data-name="Path 47"
                    d="M469.042,253.975c-16.472-2.2-33.164-2.713-49.761-2.954a1039.609,1039.609,0,0,0-107.348,3.99c-9.95.885-19.886,1.948-29.805,3.128q-7.325.871-14.636,1.85c-4.877.655-10.069,2.027-14.982,2.072.816-3.177,2.608-6.326,3.922-9.329q2.1-4.8,4.259-9.569a14.17,14.17,0,0,1,1.675-3.243,13.58,13.58,0,0,1,3.02-2.047,18.355,18.355,0,0,1,3.487-1.184q2.74-.92,5.489-1.817,19.659-6.414,39.686-11.615c4.106-1.066,8.232-2.05,12.368-2.991,4.153-.945,8.315-1.848,12.477-2.752q3.122-.678,6.243-1.361c1.2-.264,2.4-.559,3.609-.764a42.433,42.433,0,0,0,4.579-.545c1.047-.3,2.174-.947,2.174-2.174,0-1.5-1.4-1.788-2.638-1.8-1.962-.024-3.939.072-5.906.092-1.449.014-2.905,0-4.356-.01q-10.575-.078-21.149.14c-15.483.319-30.874,1.627-46.33,2.327.694-2.5,2.437-5.024,3.633-7.32q2.3-4.425,4.666-8.82c3.061-5.7,6.054-11.486,9.466-16.985,1.46-2.353,3.61-4.535,4.864-6.967.873-1.692-.431-4.2-2.557-2.965-.843.488-1.306,1.741-1.753,2.521q-1.126,1.962-2.259,3.922-2.486,4.314-4.905,8.664-4.851,8.718-9.47,17.565c-1.4,2.682-2.654,5.486-4.177,8.1a8.464,8.464,0,0,1-1.7,2.514c-.959.618-3.693.5-4.8.607q-9.679.909-19.336,2.043c-.7.081-3.585.861-4.161.316-.474-.449-.237-2.152-.259-2.755-.036-.979-.082-1.958-.1-2.936a27.36,27.36,0,0,1,.425-6.372,12.427,12.427,0,0,0-.06-6.252c-.42-1.367-1.287-3-2.931-2.995-1.795,0-2.323,1.849-2.62,3.3-.391,1.912-.474,3.838-.971,5.733-.788,3-2.007,5.923-3.071,8.84a22.286,22.286,0,0,1-1.749,3.738c-.775,1.342-.881,1.409-2.368,1.629q-4.936.732-9.875,1.489-19.274,2.948-38.394,6.8c-6.521,1.317-13.019,2.741-19.506,4.216-2.727.62-5.467,1.2-8.18,1.878-1.933.481-3.625,1.969-2.835,4.189,1.3,3.665,4.85,1.294,7.022.264a48.817,48.817,0,0,1,9.4-3.073c7.011-1.721,14.025-3.424,21.087-4.929,13.866-2.954,27.93-5.724,42.016-7.38-.241,2.619-2.06,5.739-3,8.17q-1.816,4.7-3.684,9.378-1.783,4.466-3.615,8.913a16.105,16.105,0,0,1-1.59,2.927c-.889,1.339-.987,2.469-2.492,3.258-5.225,2.741-10.947,4.777-16.335,7.193q-8.755,3.924-17.477,7.926-8.741,4.011-17.46,8.07l-8.306,3.857c-2.993,1.39-5.958,2.363-9.048,3.482-5.444,1.97-10.806,4.166-16.272,6.093-5.893,2.079-11.778,4.189-17.485,6.743-8.545,3.823-17,8.365-25.166,12.93-1.126.629-5.7,2.193-5.005,3.926.451,1.126,1.531.5,2.267.231,2.506-.93,4.963-2.034,7.437-3.048q5.958-2.442,11.913-4.9c8.878-3.666,17.35-8.163,26.348-11.545a170.468,170.468,0,0,0,17.971-8.224c6.217-3.189,13.262-4.759,19.978-6.577q10.4-2.814,20.918-5.161,5.259-1.181,10.538-2.267c2.809-.579,5.66-1.57,8.543-1.617a3.476,3.476,0,0,1,.5,0c.215.028.193-.033.224.147.039.23-.218.686-.3.9-.245.613-.545,1.2-.812,1.8-.416.941-.855,1.872-1.3,2.8-.9,1.848-1.832,3.675-2.721,5.525l-.131.274q-2.933,6.154-6.017,12.231c-2.032,4.009-4.039,8.036-6.446,11.838-1.365,2.155-6.251,6.722-2.584,8.969,3.528,2.161,5.162-3.6,6.17-5.722q3.008-6.341,5.987-12.7t5.83-12.78c1.758-3.952,3.2-8.323,5.425-12.029a8.944,8.944,0,0,1,1.578-2.3,7.531,7.531,0,0,1,2.691-.559c2.475-.429,4.946-.887,7.421-1.314q7.773-1.342,15.567-2.55c-.092,4.478.039,9.02-.227,13.487-.14,2.354-1.255,8.938,2.63,9.181,2.757.172,2.782-4.561,2.982-6.37.462-4.178,2.111-7.9,3.69-11.773.438-1.076.842-2.179,1.351-3.224.358-.735.913-2.539,1.533-2.987s2.471-.447,3.312-.6c1.459-.259,2.947-.415,4.415-.617q17.863-2.463,35.809-4.246a901.772,901.772,0,0,1,135.288-3.584c5.443.27,10.882.483,16.3,1.088a128.152,128.152,0,0,1,18.351,3.193c2.181.573,4.743,1.672,6.28-.707A3.393,3.393,0,0,0,469.042,253.975Zm-366.7,51.658a217.268,217.268,0,0,1,20.963-9.527C116.256,299.147,109.451,302.692,102.345,305.632Zm133.012-89.857c.364-1.077.758-2.141,1.15-3.209a59.027,59.027,0,0,1,2.668-6.79c.352,2.961.149,6.25.215,9.265a2.688,2.688,0,0,1-3.69,2.567C234.518,217.265,234.981,216.889,235.357,215.775Zm-22.906,48.98c-.391.9-.849,1.7-1.3,2.557-.2.372-.381,1.179-.69,1.46-.409.371-1.5.45-2.016.777-3.194,1.017-6.708,1.385-9.993,2.067q-5.462,1.134-10.9,2.368-10.88,2.474-21.646,5.414c16.52-7.657,33.024-15.457,49.857-22.409C214.875,259.632,213.564,262.2,212.451,264.754Zm27.3-.624c-.193.22-1.463.238-1.772.288q-1.993.326-3.986.658-4.205.7-8.4,1.445c-3.707.633-7.473,1.6-11.212,1.973.744-3.035,2.491-6.059,3.692-8.945.538-1.293,1.537-2.166,2.1-3.457.415-.947.219-1.08,1.1-1.66a7.868,7.868,0,0,1,2.214-.7c5.5-1.7,10.59-5.229,16.293-6.182.2,4.915.1,9.837.007,14.757C239.787,262.62,239.949,263.909,239.755,264.131Zm-.334-19.889c-.7.9-2.837,1.608-3.854,2.013q-2.423.963-4.838,1.944c-3.121,1.267-6.208,2.742-9.423,3.75q.091-.327.182-.656c2.5-6.894,5.537-13.621,8.181-20.465q1.056-2.735,2.095-5.478c.391-1.031.7-3.179,1.754-3.8a11.038,11.038,0,0,1,3.946-.7c2.229-.111,2.19.762,2.168,2.7-.042,3.73.079,7.459.167,11.187C239.852,236.982,240.755,242.544,239.421,244.242Zm32.339-24.391a9.335,9.335,0,0,1,1.029-1.89,3.666,3.666,0,0,1,2.947-1.312c5.136-.79,10.494-.861,15.677-1.194q8.277-.531,16.565-.88,6.449-.272,12.9-.434t12.908-.214q1.84-.016,3.68-.021c.529,0,1.1-.027,1.644-.043a6,6,0,0,1,1.733.034c-.068.1-.25.141-.377.173-.265.068-.532.135-.8.2q-.769.191-1.54.371c-1.028.241-2.06.47-3.091.7-2.065.453-4.134.893-6.191,1.384l-.062.014q-6.193,1.481-12.36,3.078t-12.3,3.307q-1.2.334-2.391.672-9.668,2.735-19.252,5.755-4.685,1.477-9.347,3.022c-2.863.948-5.953,2.491-8.928,2.961,1.65-3.709,3.464-7.353,5.247-11C270.22,222.97,270.98,221.405,271.76,219.851Zm-29.15,1.863c.052-1.323.237-1.632,1.586-1.7,3.923-.785,8.04-1.026,12.014-1.469,3.815-.426,8.109-1.41,11.941-1.236,1.961.09.48,1.778-.1,2.961q-1.3,2.637-2.578,5.283c-1.592,3.292-2.892,7.249-5.024,10.24-1.759,2.467-6.438,3.425-9.248,4.465q-2.7,1-5.4,2.021c-1.263.478-2.2,1.549-2.7-.116-.511-1.7-.073-4.232-.1-6.02q-.05-3.132-.121-6.263c-.046-2.015-.054-4.038-.158-6.051C242.679,223.122,242.582,222.425,242.609,221.713Zm4.565,43.9a5.24,5.24,0,0,1-.1.734,2.771,2.771,0,0,1-.074.277c-.151.47-.324.941-.493,1.407-.349.968-.728,1.925-1.118,2.878-.783,1.908-1.613,3.795-2.356,5.719a1.92,1.92,0,0,0-.207.545c-.078-2.424.024-4.853.066-7.277.016-.914-.339-2.868.065-3.694.22-.451.853-.607,1.3-.709a14.907,14.907,0,0,1,1.9-.267l.464-.044a1.635,1.635,0,0,1,.491-.051C247.285,265.188,247.186,265.467,247.175,265.61ZM249.1,261.1c-.854,1.2-1.2,1.719-2.664,2-1.123.218-2.3.324-3.432.5q.089-4.826.1-9.653c.009-2.285-.763-6.07.823-7.82,1.553-1.713,4.758-2.309,6.847-3.078,2.589-.953,5.176-1.934,7.768-2.868l-.189.481q-3.3,7.206-6.467,14.474A32.189,32.189,0,0,1,249.1,261.1Z"
                    transform="translate(-82.651 -170.027)"
                    fill="#fff"
                  />
                  <path
                    id="Path_48"
                    data-name="Path 48"
                    d="M548.839,263.641a2.682,2.682,0,0,1-.543.45,5.7,5.7,0,0,1-.727.442,6.956,6.956,0,0,1-1.583.588,14.68,14.68,0,0,0-2.488.838,2.008,2.008,0,0,0-1.449,1.606,2.275,2.275,0,0,0,.464,1.6,1.466,1.466,0,0,0,1.4.71c2.071-.081,3.845-1.231,5.53-2.33a9.912,9.912,0,0,0,1.954-1.592,5.079,5.079,0,0,0,.879-1.272,3.555,3.555,0,0,0,.367-1.893,3.408,3.408,0,0,0-.085-.556,2.541,2.541,0,0,0-.308-.716,3.062,3.062,0,0,0-.821-.873,5.2,5.2,0,0,0-1.456-.709,11.172,11.172,0,0,0-2.474-.439,24.638,24.638,0,0,0-4.527.134,66.836,66.836,0,0,0-16.632,4.595c-5.174,2.113-10.533,4.269-15.435,7.6a34.5,34.5,0,0,0-3.616,2.756,18.027,18.027,0,0,0-1.73,1.765,15.96,15.96,0,0,0-1.515,2.06,6.871,6.871,0,0,0-.452.908c-.321.778-1.453.8-2.174.993q-1.788.477-3.576.948c-2.373.621-4.752,1.22-7.147,1.754a33.523,33.523,0,0,1-7.468,1,6.008,6.008,0,0,1-1.585-.231,1.493,1.493,0,0,1-.841-.557,1.034,1.034,0,0,1-.132-.811,3.382,3.382,0,0,1,.59-1.23,22.937,22.937,0,0,1,5.517-4.8,74.961,74.961,0,0,1,6.655-3.985l3.467-1.826,3.6-1.574c1.188-.539,2.443-.951,3.665-1.387.609-.222,1.23-.413,1.85-.572l.91-.234a4.177,4.177,0,0,1,.438-.088c.1-.008.348-.068.276,0a2.127,2.127,0,0,0-1.448-4c-.749.229-1.324.444-1.97.682q-.947.345-1.857.748c-1.217.533-2.438,1.053-3.618,1.647l-3.547,1.762-.493.272a3.541,3.541,0,0,0-.657-2.425,4.548,4.548,0,0,0-3.133-1.533,20.609,20.609,0,0,0-6.388.235,54.018,54.018,0,0,0-6.142,1.355,99.435,99.435,0,0,0-11.744,4.3,77.768,77.768,0,0,0-11.254,5.642,28.913,28.913,0,0,0-5.184,3.945,15.891,15.891,0,0,0-1.129,1.281,12.955,12.955,0,0,0-1.028,1.434,5.463,5.463,0,0,0-.77,2.032,3.935,3.935,0,0,0,.02,1.27,3.706,3.706,0,0,0,.444,1.272,3.5,3.5,0,0,0,2.266,1.612,7.579,7.579,0,0,0,1.966.161l.795-.023c.291-.012.59-.032.872-.063.572-.057,1.115-.146,1.658-.238a56.962,56.962,0,0,0,6.185-1.576c4-1.264,7.894-2.73,11.752-4.266a34.127,34.127,0,0,0,3.384-1.62,1.507,1.507,0,0,1,.589-.213c.97-.064.352.972.267,1.4a4.2,4.2,0,0,0,.692,3.246,4.68,4.68,0,0,0,2.6,1.726,8.94,8.94,0,0,0,2.414.277,35.42,35.42,0,0,0,8.155-1.395c1.995-.55,3.975-1.149,5.947-1.777q1.449-.462,2.893-.942c.554-.184,1.1-.4,1.65-.592a3.585,3.585,0,0,1,.993-.319c.554-.016.392.609.522,1.034a4.981,4.981,0,0,0,.6,1.266A4.541,4.541,0,0,0,506.017,286a7.675,7.675,0,0,0,3.214.414c.762-.06,1.486-.158,2.231-.237,2.909-.382,5.651-.915,8.484-1.368,1.418-.213,2.79-.51,4.158-.816l4.116-.893c5.514-1.115,10.911-2.546,16.338-3.916l8.1-2.153c2.7-.734,5.4-1.415,8.079-2.222,3.771-1.138,7.619-2.106,11.345-3.368,1.408-.476,2.877-.784,4.289-1.264a2.422,2.422,0,0,0,.829-.41.776.776,0,0,0-.26-1.378,3.828,3.828,0,0,0-2.261.01c-1.107.287-2.194.637-3.3.9q-1.872.452-3.746.9-3.809.908-7.622,1.794L543.735,275.8c-5.442,1.171-10.864,2.459-16.327,3.463l-4.089.8c-1.362.275-2.725.54-4.09.713-2.721.377-5.469.848-8.158,1.148-.666.058-1.34.138-2,.179a3.069,3.069,0,0,1-1.237-.051c-.64-.254-.24-1.04.008-1.442a18.343,18.343,0,0,1,5.534-5.2,88.76,88.76,0,0,1,14.531-7.555,59.416,59.416,0,0,1,15.539-4.743,21.081,21.081,0,0,1,3.87-.185,12.909,12.909,0,0,1,1.485.195.326.326,0,0,1,.117.037C549.075,263.261,548.916,263.543,548.839,263.641Zm-96.27,19.724a2.891,2.891,0,0,1,.783-.957,30.778,30.778,0,0,1,4.382-3.445,73.935,73.935,0,0,1,10.506-5.631,119.877,119.877,0,0,1,11.157-4.546,50.756,50.756,0,0,1,5.705-1.522,20.374,20.374,0,0,1,5.46-.514q.316.023.621.067a2.844,2.844,0,0,1,.376.074.964.964,0,0,1,.392.181c1.373,1.169-1.313,2.95-2.062,3.48a55.246,55.246,0,0,1-4.947,3.121,39.336,39.336,0,0,1-5.451,2.506c-1.358.484-2.718.952-4.08,1.416-1.171.4-2.355.831-3.509,1.283-3.862,1.359-7.749,2.642-11.636,3.7a58.162,58.162,0,0,1-5.738,1.3c-.367.052-.736.112-1.107.137-.329.022-.992.221-.923-.358A1.24,1.24,0,0,1,452.569,283.365Z"
                    transform="translate(-237.316 -207.958)"
                    fill="#fff"
                  />
                </g>
              </g>
            </g>
          </svg>